<mxfile host="Electron" modified="2024-07-28T04:35:26.883Z" agent="Mozilla/5.0 (X11; Linux x86_64) AppleWebKit/537.36 (KHTML, like Gecko) draw.io/24.5.3 Chrome/124.0.6367.207 Electron/30.0.6 Safari/537.36" etag="HkgsMGbNvRlr4Yi2sZPh" version="24.5.3" type="device">
  <diagram name="PÃ¡gina-1" id="nSOWSuv8ytGHugRA3-Ay">
    <mxGraphModel dx="1114" dy="783" grid="1" gridSize="10" guides="1" tooltips="1" connect="1" arrows="1" fold="1" page="1" pageScale="1" pageWidth="827" pageHeight="1169" math="0" shadow="0">
      <root>
        <mxCell id="0" />
        <mxCell id="1" parent="0" />
        <mxCell id="48QVdjH3HOpqPRY_-FVE-2" value="" style="rounded=1;whiteSpace=wrap;html=1;fillColor=#f5f5f5;strokeColor=#080808;fontColor=#333333;strokeWidth=4;dashed=1;" vertex="1" parent="1">
          <mxGeometry x="140" y="80" width="610" height="630" as="geometry" />
        </mxCell>
        <mxCell id="48QVdjH3HOpqPRY_-FVE-3" value="" style="rounded=1;whiteSpace=wrap;html=1;fillColor=#f5f5f5;fontColor=#333333;strokeColor=#666666;strokeWidth=4;dashed=1;" vertex="1" parent="1">
          <mxGeometry x="160" y="170" width="570" height="60" as="geometry" />
        </mxCell>
        <mxCell id="48QVdjH3HOpqPRY_-FVE-4" value="" style="rounded=1;whiteSpace=wrap;html=1;fillColor=#f5f5f5;fontColor=#333333;strokeColor=#666666;dashed=1;strokeWidth=3;" vertex="1" parent="1">
          <mxGeometry x="160" y="270" width="120" height="60" as="geometry" />
        </mxCell>
        <mxCell id="48QVdjH3HOpqPRY_-FVE-5" value="" style="rounded=1;whiteSpace=wrap;html=1;fillColor=#f5f5f5;fontColor=#333333;strokeColor=#666666;dashed=1;strokeWidth=3;" vertex="1" parent="1">
          <mxGeometry x="310" y="270" width="120" height="60" as="geometry" />
        </mxCell>
        <mxCell id="48QVdjH3HOpqPRY_-FVE-6" value="" style="rounded=1;whiteSpace=wrap;html=1;fillColor=#f5f5f5;fontColor=#333333;strokeColor=#666666;dashed=1;strokeWidth=3;" vertex="1" parent="1">
          <mxGeometry x="460" y="270" width="120" height="60" as="geometry" />
        </mxCell>
        <mxCell id="48QVdjH3HOpqPRY_-FVE-10" value="" style="rounded=1;whiteSpace=wrap;html=1;fillColor=#f5f5f5;fontColor=#333333;strokeColor=#666666;dashed=1;strokeWidth=3;" vertex="1" parent="1">
          <mxGeometry x="610" y="270" width="120" height="60" as="geometry" />
        </mxCell>
        <mxCell id="48QVdjH3HOpqPRY_-FVE-11" value="" style="rounded=1;whiteSpace=wrap;html=1;fillColor=#f5f5f5;fontColor=#333333;strokeColor=#666666;dashed=1;strokeWidth=3;" vertex="1" parent="1">
          <mxGeometry x="160" y="370" width="120" height="60" as="geometry" />
        </mxCell>
        <mxCell id="48QVdjH3HOpqPRY_-FVE-12" value="" style="rounded=1;whiteSpace=wrap;html=1;fillColor=#f5f5f5;fontColor=#333333;strokeColor=#666666;dashed=1;strokeWidth=3;" vertex="1" parent="1">
          <mxGeometry x="310" y="370" width="120" height="60" as="geometry" />
        </mxCell>
        <mxCell id="48QVdjH3HOpqPRY_-FVE-13" value="" style="rounded=1;whiteSpace=wrap;html=1;fillColor=#f5f5f5;fontColor=#333333;strokeColor=#666666;dashed=1;strokeWidth=3;" vertex="1" parent="1">
          <mxGeometry x="460" y="370" width="120" height="60" as="geometry" />
        </mxCell>
        <mxCell id="48QVdjH3HOpqPRY_-FVE-14" value="" style="rounded=1;whiteSpace=wrap;html=1;fillColor=#f5f5f5;fontColor=#333333;strokeColor=#666666;dashed=1;strokeWidth=3;" vertex="1" parent="1">
          <mxGeometry x="610" y="370" width="120" height="60" as="geometry" />
        </mxCell>
        <mxCell id="48QVdjH3HOpqPRY_-FVE-15" value="" style="rounded=1;whiteSpace=wrap;html=1;fillColor=#f5f5f5;fontColor=#333333;strokeColor=#666666;dashed=1;strokeWidth=3;" vertex="1" parent="1">
          <mxGeometry x="160" y="460" width="120" height="60" as="geometry" />
        </mxCell>
        <mxCell id="48QVdjH3HOpqPRY_-FVE-16" value="" style="rounded=1;whiteSpace=wrap;html=1;fillColor=#f5f5f5;fontColor=#333333;strokeColor=#666666;dashed=1;strokeWidth=3;" vertex="1" parent="1">
          <mxGeometry x="310" y="460" width="120" height="60" as="geometry" />
        </mxCell>
        <mxCell id="48QVdjH3HOpqPRY_-FVE-17" value="" style="rounded=1;whiteSpace=wrap;html=1;fillColor=#f5f5f5;fontColor=#333333;strokeColor=#666666;dashed=1;strokeWidth=3;" vertex="1" parent="1">
          <mxGeometry x="460" y="460" width="120" height="60" as="geometry" />
        </mxCell>
        <mxCell id="48QVdjH3HOpqPRY_-FVE-18" value="" style="rounded=1;whiteSpace=wrap;html=1;fillColor=#f5f5f5;fontColor=#333333;strokeColor=#666666;dashed=1;strokeWidth=3;" vertex="1" parent="1">
          <mxGeometry x="610" y="460" width="120" height="60" as="geometry" />
        </mxCell>
        <mxCell id="48QVdjH3HOpqPRY_-FVE-20" value="" style="rounded=1;whiteSpace=wrap;html=1;fillColor=#f5f5f5;fontColor=#333333;strokeColor=#666666;strokeWidth=3;dashed=1;" vertex="1" parent="1">
          <mxGeometry x="160" y="560" width="270" height="60" as="geometry" />
        </mxCell>
        <mxCell id="48QVdjH3HOpqPRY_-FVE-21" value="" style="rounded=1;whiteSpace=wrap;html=1;fillColor=#f5f5f5;fontColor=#333333;strokeColor=#666666;strokeWidth=3;dashed=1;" vertex="1" parent="1">
          <mxGeometry x="460" y="560" width="120" height="60" as="geometry" />
        </mxCell>
        <mxCell id="48QVdjH3HOpqPRY_-FVE-22" value="" style="rounded=1;whiteSpace=wrap;html=1;fillColor=#f5f5f5;fontColor=#333333;strokeColor=#666666;strokeWidth=3;dashed=1;" vertex="1" parent="1">
          <mxGeometry x="610" y="560" width="120" height="60" as="geometry" />
        </mxCell>
        <mxCell id="48QVdjH3HOpqPRY_-FVE-23" value="&lt;font style=&quot;font-size: 22px;&quot;&gt;TEXTO&lt;/font&gt;" style="text;html=1;align=center;verticalAlign=middle;whiteSpace=wrap;rounded=0;fontFamily=Comic Sans MS;fontSize=22;fontColor=#851b93;fontStyle=1" vertex="1" parent="1">
          <mxGeometry x="580" y="181.25" width="150" height="37.5" as="geometry" />
        </mxCell>
        <mxCell id="48QVdjH3HOpqPRY_-FVE-24" value="&lt;font style=&quot;font-size: 22px;&quot;&gt;AC&lt;/font&gt;&lt;span style=&quot;color: rgba(0, 0, 0, 0); font-family: monospace; font-size: 0px; font-weight: 400; text-align: start; text-wrap: nowrap;&quot;&gt;%3CmxGraphModel%3E%3Croot%3E%3CmxCell%20id%3D%220%22%2F%3E%3CmxCell%20id%3D%221%22%20parent%3D%220%22%2F%3E%3CmxCell%20id%3D%222%22%20value%3D%22%26lt%3Bfont%20style%3D%26quot%3Bfont-size%3A%2022px%3B%26quot%3B%26gt%3BTEXTO%26lt%3B%2Ffont%26gt%3B%22%20style%3D%22text%3Bhtml%3D1%3Balign%3Dcenter%3BverticalAlign%3Dmiddle%3BwhiteSpace%3Dwrap%3Brounded%3D0%3BfontFamily%3DComic%20Sans%20MS%3BfontSize%3D22%3BfontColor%3D%23851b93%3BfontStyle%3D1%22%20vertex%3D%221%22%20parent%3D%221%22%3E%3CmxGeometry%20x%3D%22580%22%20y%3D%22181.25%22%20width%3D%22150%22%20height%3D%2237.5%22%20as%3D%22geometry%22%2F%3E%3C%2FmxCell%3E%3C%2Froot%3E%3C%2FmxGraphModel%3E&lt;/span&gt;" style="text;html=1;align=center;verticalAlign=middle;whiteSpace=wrap;rounded=0;fontFamily=Comic Sans MS;fontSize=22;fontColor=#851b93;fontStyle=1" vertex="1" parent="1">
          <mxGeometry x="145" y="281.25" width="150" height="37.5" as="geometry" />
        </mxCell>
        <mxCell id="48QVdjH3HOpqPRY_-FVE-26" value="+/-" style="text;html=1;align=center;verticalAlign=middle;whiteSpace=wrap;rounded=0;fontFamily=Comic Sans MS;fontSize=22;fontColor=#851b93;fontStyle=1" vertex="1" parent="1">
          <mxGeometry x="295" y="281.25" width="150" height="37.5" as="geometry" />
        </mxCell>
        <mxCell id="48QVdjH3HOpqPRY_-FVE-27" value="%" style="text;html=1;align=center;verticalAlign=middle;whiteSpace=wrap;rounded=0;fontFamily=Comic Sans MS;fontSize=22;fontColor=#851b93;fontStyle=1" vertex="1" parent="1">
          <mxGeometry x="445" y="281.25" width="150" height="37.5" as="geometry" />
        </mxCell>
        <mxCell id="48QVdjH3HOpqPRY_-FVE-28" value="/" style="text;html=1;align=center;verticalAlign=middle;whiteSpace=wrap;rounded=0;fontFamily=Comic Sans MS;fontSize=22;fontColor=#851b93;fontStyle=1" vertex="1" parent="1">
          <mxGeometry x="595" y="281.25" width="150" height="37.5" as="geometry" />
        </mxCell>
        <mxCell id="48QVdjH3HOpqPRY_-FVE-29" value="4" style="text;html=1;align=center;verticalAlign=middle;whiteSpace=wrap;rounded=0;fontFamily=Comic Sans MS;fontSize=22;fontColor=#851b93;fontStyle=1" vertex="1" parent="1">
          <mxGeometry x="145" y="381.25" width="150" height="37.5" as="geometry" />
        </mxCell>
        <mxCell id="48QVdjH3HOpqPRY_-FVE-30" value="5" style="text;html=1;align=center;verticalAlign=middle;whiteSpace=wrap;rounded=0;fontFamily=Comic Sans MS;fontSize=22;fontColor=#851b93;fontStyle=1" vertex="1" parent="1">
          <mxGeometry x="295" y="376.25" width="150" height="37.5" as="geometry" />
        </mxCell>
        <mxCell id="48QVdjH3HOpqPRY_-FVE-31" value="6" style="text;html=1;align=center;verticalAlign=middle;whiteSpace=wrap;rounded=0;fontFamily=Comic Sans MS;fontSize=22;fontColor=#851b93;fontStyle=1" vertex="1" parent="1">
          <mxGeometry x="445" y="376.25" width="150" height="37.5" as="geometry" />
        </mxCell>
        <mxCell id="48QVdjH3HOpqPRY_-FVE-32" value="*" style="text;html=1;align=center;verticalAlign=middle;whiteSpace=wrap;rounded=0;fontFamily=Comic Sans MS;fontSize=22;fontColor=#851b93;fontStyle=1" vertex="1" parent="1">
          <mxGeometry x="595" y="376.25" width="150" height="37.5" as="geometry" />
        </mxCell>
        <mxCell id="48QVdjH3HOpqPRY_-FVE-33" value="1" style="text;html=1;align=center;verticalAlign=middle;whiteSpace=wrap;rounded=0;fontFamily=Comic Sans MS;fontSize=22;fontColor=#851b93;fontStyle=1" vertex="1" parent="1">
          <mxGeometry x="140" y="471.25" width="150" height="37.5" as="geometry" />
        </mxCell>
        <mxCell id="48QVdjH3HOpqPRY_-FVE-34" value="2" style="text;html=1;align=center;verticalAlign=middle;whiteSpace=wrap;rounded=0;fontFamily=Comic Sans MS;fontSize=22;fontColor=#851b93;fontStyle=1" vertex="1" parent="1">
          <mxGeometry x="295" y="471.25" width="150" height="37.5" as="geometry" />
        </mxCell>
        <mxCell id="48QVdjH3HOpqPRY_-FVE-35" value="3" style="text;html=1;align=center;verticalAlign=middle;whiteSpace=wrap;rounded=0;fontFamily=Comic Sans MS;fontSize=22;fontColor=#851b93;fontStyle=1" vertex="1" parent="1">
          <mxGeometry x="445" y="471.25" width="150" height="37.5" as="geometry" />
        </mxCell>
        <mxCell id="48QVdjH3HOpqPRY_-FVE-36" value="+" style="text;html=1;align=center;verticalAlign=middle;whiteSpace=wrap;rounded=0;fontFamily=Comic Sans MS;fontSize=22;fontColor=#851b93;fontStyle=1" vertex="1" parent="1">
          <mxGeometry x="595" y="471.25" width="150" height="37.5" as="geometry" />
        </mxCell>
        <mxCell id="48QVdjH3HOpqPRY_-FVE-37" value="-" style="text;html=1;align=center;verticalAlign=middle;whiteSpace=wrap;rounded=0;fontFamily=Comic Sans MS;fontSize=22;fontColor=#851b93;fontStyle=1" vertex="1" parent="1">
          <mxGeometry x="595" y="571.25" width="150" height="37.5" as="geometry" />
        </mxCell>
        <mxCell id="48QVdjH3HOpqPRY_-FVE-38" value="." style="text;html=1;align=center;verticalAlign=middle;whiteSpace=wrap;rounded=0;fontFamily=Comic Sans MS;fontSize=22;fontColor=#851b93;fontStyle=1" vertex="1" parent="1">
          <mxGeometry x="445" y="571.25" width="150" height="37.5" as="geometry" />
        </mxCell>
        <mxCell id="48QVdjH3HOpqPRY_-FVE-39" value="0" style="text;html=1;align=center;verticalAlign=middle;whiteSpace=wrap;rounded=0;fontFamily=Comic Sans MS;fontSize=22;fontColor=#851b93;fontStyle=1" vertex="1" parent="1">
          <mxGeometry x="220" y="571.25" width="150" height="37.5" as="geometry" />
        </mxCell>
        <mxCell id="48QVdjH3HOpqPRY_-FVE-46" value="&lt;font style=&quot;font-size: 22px;&quot;&gt;Linhas&lt;/font&gt;" style="text;html=1;align=center;verticalAlign=middle;whiteSpace=wrap;rounded=0;fontFamily=Comic Sans MS;fontSize=22;fontColor=#851b93;fontStyle=1;dashed=1;dashPattern=1 2;strokeWidth=4;strokeColor=#666666;" vertex="1" parent="1">
          <mxGeometry x="827" y="181.25" width="150" height="37.5" as="geometry" />
        </mxCell>
        <mxCell id="48QVdjH3HOpqPRY_-FVE-49" value="&lt;font style=&quot;font-size: 22px;&quot;&gt;1 Coluna X 5 linhas&lt;/font&gt;" style="text;html=1;align=center;verticalAlign=middle;whiteSpace=wrap;rounded=0;fontFamily=Comic Sans MS;fontSize=22;fontColor=#851b93;fontStyle=1;dashed=1;dashPattern=1 2;strokeWidth=4;strokeColor=#666666;" vertex="1" parent="1">
          <mxGeometry x="827" y="310" width="250" height="40" as="geometry" />
        </mxCell>
        <mxCell id="48QVdjH3HOpqPRY_-FVE-51" value="" style="rounded=1;whiteSpace=wrap;html=1;strokeColor=#666666;align=center;verticalAlign=middle;fontFamily=Helvetica;fontSize=12;fontColor=#333333;fillColor=none;strokeWidth=3;dashed=1;" vertex="1" parent="1">
          <mxGeometry x="148" y="250" width="595" height="400" as="geometry" />
        </mxCell>
        <mxCell id="48QVdjH3HOpqPRY_-FVE-53" value="&lt;font style=&quot;font-size: 22px;&quot;&gt;Expand 1.1.1.1&lt;/font&gt;" style="text;html=1;align=center;verticalAlign=middle;whiteSpace=wrap;rounded=0;fontFamily=Comic Sans MS;fontSize=22;fontColor=#851b93;fontStyle=1;dashed=1;dashPattern=1 2;strokeWidth=4;strokeColor=#666666;" vertex="1" parent="1">
          <mxGeometry x="827" y="390" width="250" height="40" as="geometry" />
        </mxCell>
        <mxCell id="48QVdjH3HOpqPRY_-FVE-57" value="&lt;font style=&quot;font-size: 22px;&quot;&gt;Expand 2.1.1&lt;/font&gt;" style="text;html=1;align=center;verticalAlign=middle;whiteSpace=wrap;rounded=0;fontFamily=Comic Sans MS;fontSize=22;fontColor=#851b93;fontStyle=1;dashed=1;dashPattern=1 2;strokeWidth=4;strokeColor=#666666;" vertex="1" parent="1">
          <mxGeometry x="827" y="580" width="250" height="40" as="geometry" />
        </mxCell>
      </root>
    </mxGraphModel>
  </diagram>
</mxfile>
